<svg aria-hidden="true" style="position:absolute;width:0;height:0" xmlns="http://www.w3.org/2000/svg" overflow="hidden">
<defs>
<symbol id="icon-mail" viewBox="0 0 47 32">
<path d="M42.182 0H4.364C1.958 0 0 1.772 0 3.948v23.68c0 2.176 1.958 3.945 4.364 3.945h37.818c2.406 0 4.364-1.769 4.364-3.948V3.945c0-2.17-1.958-3.945-4.364-3.945zm0 2.63c.198 0 .387.038.559.102L23.273 17.993 3.805 2.732c.166-.064.358-.102.558-.102h37.818zm0 26.313H4.364c-.803 0-1.455-.591-1.455-1.318V5.513l19.409 15.215c.276.215.614.32.954.32h.013c.356 0 .684-.12.945-.323l-.004.003L43.635 5.513v22.112c0 .727-.652 1.318-1.455 1.318z"/>
</symbol>
<symbol id="icon-tel" viewBox="0 0 21 32">
<path  d="M18.133 0H3.2C1.436 0 0 1.299 0 2.895v25.082c0 1.596 1.436 2.895 3.2 2.895h14.933c1.764 0 3.2-1.299 3.2-2.895V2.895c0-1.596-1.436-2.895-3.2-2.895zM3.2 1.929h14.933c.589 0 1.067.433 1.067.966v20.258H2.133V2.895c0-.533.478-.966 1.067-.966zm14.933 27.012H3.2c-.589 0-1.067-.431-1.067-.964v-2.895H19.2v2.895c0 .533-.478.964-1.067.964z"/>
<path  d="M5.022 26.33a.9.9 0 01.001 1.365l-.001.001c-.201.176-.465.283-.755.283s-.554-.107-.756-.285l.001.001a.9.9 0 01-.001-1.365l.001-.001c.201-.176.465-.283.755-.283s.554.107.756.285l-.001-.001z"/>
</symbol>
<symbol id="icon-antenna" viewBox="0 0 32 32">
<path fill="var(--color1, #212121)" d="M30.773 22.098l-8.443-8.505.937-4.616c.225.09.485.144.758.146h.033a2.16 2.16 0 10-2.029-1.42l-.005-.015-4.96.606L8.973.161a.53.53 0 00-.376-.16.536.536 0 00-.373.155L6.712 1.66a.535.535 0 000 .754l.814.825C6.383 5.301 5.71 7.761 5.71 10.378c0 4.106 1.656 7.824 4.336 10.525l-.001-.001a.49.49 0 00.146.097 2.986 2.986 0 00-.052.546v6.188h-6.4a2.669 2.669 0 00-2.667 2.666v1.067c0 .295.239.534.534.534H26.14a.534.534 0 00.533-.534v-1.067a2.67 2.67 0 00-2.666-2.666h-6.4v-2.742a14.784 14.784 0 0010.166-1.502l-.077.039.818.823a.534.534 0 00.376.16.536.536 0 00.373-.155l1.512-1.504a.535.535 0 000-.754zM23.28 6.233a1.067 1.067 0 11.752 1.822h-.004a1.066 1.066 0 01-.747-1.822h-.002zm-1.256 3.504l-.598 2.946-1.175-1.183 1.774-1.763zm-.605-.902l-1.92 1.909-1.486-1.493 3.406-.416zM24.004 28.8a1.6 1.6 0 011.6 1.6v.534H2.138V30.4a1.6 1.6 0 011.6-1.6h20.267zm-7.466-2.134v1.067h-5.334v-1.067h5.334zM11.204 25.6v-4.053c0-1.294 1.196-2.346 2.667-2.346s2.667 1.053 2.667 2.346V25.6h-5.334zm6.4-1.696v-2.357c0-1.882-1.675-3.413-3.733-3.413h-.058c-1.353 0-2.54.707-3.213 1.771l-.009.016a13.817 13.817 0 01-3.812-9.55c0-2.314.567-4.496 1.569-6.414l-.036.077 18.602 18.709c-1.823.947-3.979 1.502-6.266 1.502-1.079 0-2.128-.124-3.136-.357l.093.018zm11.289-.684L7.836 2.039l.754-.752 7.935 7.98c.004 0 .006.007.01.01l13.114 13.191-.757.752z"/>
<path fill="var(--color2, #2196f3)" d="M13.876 20.267h-.007a1.6 1.6 0 00-.003 3.2h.007a1.6 1.6 0 00.002-3.2zm.373 1.978a.534.534 0 11-.378-.912.533.533 0 01.374.911h.005z"/>
</symbol>
<symbol id="icon-clock" viewBox="0 0 32 32"><path fill="var(--color1, #212121)" d="M31.296 15.301C31.295 6.849 24.441-.002 15.988 0S.685 6.855.687 15.308c.002 6.788 4.422 12.543 10.541 14.545l.108.031a.667.667 0 00.529-.065.636.636 0 00.283-.357l3.865-12.25a1.913 1.913 0 10-.852-3.63l.011-.005-5.106-5.107a.638.638 0 00-.902.902l5.103 5.109a1.847 1.847 0 00-.191.826c0 .602.283 1.137.723 1.48l.004.003-3.682 11.673C3.843 25.782.117 17.709 2.797 10.431S13.551-.573 20.829 2.108c7.278 2.681 11.004 10.754 8.323 18.032-1.345 3.581-4.003 6.406-7.374 7.938l-.088.036-.398-1.874a.639.639 0 00-1.05-.343l.001-.001-3.837 3.426a.637.637 0 00.227 1.083l.005.001 4.899 1.563a.637.637 0 00.818-.744l.001.004-.391-1.839c5.528-2.374 9.329-7.772 9.329-14.057v-.034.002zm-15.304-.637a.638.638 0 010 1.276.638.638 0 010-1.276zm2.1 14.864l2.184-1.948.603 2.84-2.787-.892z"/>
<path fill="var(--color2, #2196f3)" d="M15.354 3.185V4.46a.638.638 0 001.276 0V3.185a.638.638 0 10-1.276 0zM3.876 14.664a.638.638 0 000 1.276h1.275a.638.638 0 000-1.276H3.876zm24.232 1.275a.638.638 0 000-1.276h-1.275a.638.638 0 000 1.276h1.275z"/>
</symbol>
<symbol id="icon-diagram" viewBox="0 0 32 32">
<path fill="var(--color2, #2196f3)" d="M14.926 14.965h1.066v4.798h-1.066v-4.798zm4.264 2.132h1.066v2.665H19.19v-2.665zm-8.529 1.599h1.066v1.066h-1.066v-1.066zm-3.198-.533h1.066v1.599H7.463v-1.599z"/>
<path fill="var(--color1, #212121)" d="M1.599 28.291h25.586a1.6 1.6 0 001.599-1.599V24.56a1.6 1.6 0 00-1.599-1.599h-.533V9.667l3.028-2.868a1.608 1.608 0 10-.742-.752l-.004-.01-2.281 2.162v-1.23a1.6 1.6 0 00-1.599-1.599H3.731a1.6 1.6 0 00-1.599 1.599v15.992h-.533A1.6 1.6 0 000 24.56v2.132a1.6 1.6 0 001.599 1.599zM30.384 4.837a.533.533 0 010 1.066.533.533 0 010-1.066zM3.198 6.969c0-.294.239-.533.533-.533h21.323c.294 0 .533.239.533.533v2.239l-1.066 1.013V8.036a.534.534 0 00-.534-.534H4.798a.534.534 0 00-.534.533v13.327c0 .294.239.533.534.533h19.189a.534.534 0 00.534-.533v-9.675l1.066-1.01V22.96H3.198V6.969zm4.798 6.93h-.005a1.6 1.6 0 101.112 2.748l1.853.93a.535.535 0 00.636-.122l3.939-4.432 3.872 2.902a.534.534 0 00.686-.039l3.365-3.188v8.131H5.331V8.568h18.123v2.661l-3.771 3.572-3.904-2.927a.534.534 0 00-.718.071v.001l-3.993 4.493-1.493-.746c.011-.064.017-.128.02-.193a1.6 1.6 0 00-1.599-1.599zm.533 1.599a.533.533 0 01-1.066 0 .533.533 0 011.066 0zm3.198 8.528h5.33v.533a.533.533 0 01-.533.533h-4.265a.533.533 0 01-.533-.533v-.533zm-10.66.534c0-.294.238-.533.533-.533h9.062v.533a1.6 1.6 0 001.599 1.599h4.265a1.6 1.6 0 001.599-1.599v-.533h9.062c.294 0 .533.239.533.533v2.132a.533.533 0 01-.533.533H1.601a.533.533 0 01-.533-.533V24.56z"/>
</symbol>
<symbol id="icon-astronaut" viewBox="0 0 32 32">
<path fill="var(--color2, #2196f3)" d="M31.974 4.524a.535.535 0 00-.427-.362h-.003l-1.91-.278-.855-1.731c-.179-.365-.777-.365-.956 0l-.855 1.731-1.911.278a.534.534 0 00-.296.91l1.383 1.348-.326 1.903a.532.532 0 00.774.562l1.708-.899 1.709.899a.534.534 0 00.773-.565v.003l-.326-1.903 1.383-1.348a.532.532 0 00.133-.551l.001.004zm-2.463 1.327a.534.534 0 00-.153.472l.191 1.114-1.001-.526a.524.524 0 00-.499.001l.003-.001-1.001.526.192-1.114a.533.533 0 00-.153-.472l-.811-.789 1.119-.163a.532.532 0 00.402-.292l.5-1.013.501 1.013a.532.532 0 00.402.292l1.119.162-.809.79zm-3.377 14.671h-1.067v1.067h1.067v-1.067zm0 2.134h-1.067v1.066h1.067v-1.066zm1.066-1.067h-1.067v1.067H27.2v-1.067zM25.067 21.589H24v1.067h1.067v-1.067zm-2.667 4.8h-1.067v1.067H22.4v-1.067zm0 2.134h-1.067v1.067H22.4v-1.067zm1.066-1.067h-1.067v1.067h1.067v-1.067zm-2.132 0h-1.067v1.067h1.067v-1.067zM16 24.256h-1.067v1.067H16v-1.067zm0 2.133h-1.067v1.067H16v-1.067zm1.067-1.067H16v1.067h1.067v-1.067zm-2.134 0h-1.066v1.067h1.066v-1.067zm-9.066-19.2H4.8v1.066h1.067V6.122zm0 2.134H4.8v1.066h1.067V8.256zm1.066-1.067H5.866v1.067h1.066V7.189zm-2.133 0H3.733v1.067H4.8V7.189z"/>
<path fill="var(--color1, #212121)" d="M24.715 14.16a1.774 1.774 0 00-1.179-.703l-.009-.001a1.769 1.769 0 00-1.344.355l.004-.003-1.253.96-1.898 1.417-1.358-.541c2.421-1.086 4.113-3.508 4.113-6.32 0-3.823-3.122-6.934-6.961-6.934S7.869 5.5 7.869 9.324c0 1.386.415 2.674 1.12 3.759l-2.768-.024c-.009 0-.016.005-.023.005a.511.511 0 00-.159.033l.004-.001c-.013.005-.026.007-.038.013-.006.003-.013.003-.019.006l-3.233 1.596-.001.001-1.893.91a.429.429 0 00-.064.036l.001-.001a1.782 1.782 0 00-.594 2.306l-.005-.01c.22.424.592.742 1.043.885l.013.003a1.772 1.772 0 001.388-.133l-.009.005 1.388-.738 2.264-1.169 1.357-.008-5.442 5.415-.001.001-1.339 1.333c-.303.299-.49.714-.49 1.173v.005a1.66 1.66 0 001.666 1.663h.004a1.67 1.67 0 001.18-.485l1.314-1.309 1.741-1.3.901.897-3.102 3.088a1.645 1.645 0 00-.491 1.174v.004a1.662 1.662 0 001.666 1.664h.003a1.67 1.67 0 001.18-.485l4.488-4.472c.007-.006.016-.009.022-.016l5.166-5.658 3.471.494a.474.474 0 00.262-.032c.018-.006.033-.015.05-.023.019-.01.039-.015.058-.027l3.213-2.133c.012-.008.018-.021.029-.03.013-.01.029-.014.041-.026l1.271-1.191c.348-.326.564-.787.564-1.3 0-.4-.132-.769-.355-1.066l.003.005zM2.13 17.77a.706.706 0 01-.564.05l.005.001a.717.717 0 01-.214-1.258l.002-.001 1.314-.632.316.924.133.389-.992.527zm3.497-1.828l-1.548.8-.255-.746-.184-.537 2.027-1.001-.04 1.484zm15.1-6.62c0 .918-.219 1.785-.599 2.56l-4.181-1.899a1.865 1.865 0 00-.782-1.384l-.006-.004 1.463-4.861c2.378.756 4.105 2.974 4.105 5.588zm-11.789 0c0-3.235 2.644-5.867 5.894-5.867.253 0 .5.022.745.053l-1.432 4.753c-.019 0-.037-.006-.057-.006h-.001a1.872 1.872 0 00-1.872 1.867 1.873 1.873 0 001.872 1.867h.001c.695 0 1.295-.383 1.618-.944l3.863 1.755a5.893 5.893 0 01-4.737 2.389c-3.25 0-5.894-2.632-5.894-5.867zm5.957.8c0 .441-.362.8-.806.8h-.001a.804.804 0 01-.804-.8c0-.441.361-.8.806-.8s.806.359.806.8zM2.464 25.146a.606.606 0 01-.855.001.591.591 0 010-.844l.962-.959.852.848-.959.955zm3.214 3.734a.606.606 0 01-.855.001.591.591 0 010-.844l.963-.959.852.848-.96.955zm3.482-3.469l-.001.001-1.765 1.76-.852-.848 1.765-1.757a.527.527 0 00.09-.136c.007-.014.02-.026.026-.04.016-.041.019-.085.026-.128.003-.025.014-.048.014-.073 0-.035-.013-.07-.02-.105-.006-.032-.006-.064-.019-.096a.536.536 0 00-.092-.138c-.01-.012-.014-.027-.025-.038h-.001l-.001-.002-1.607-1.6c-.017-.017-.039-.024-.058-.038a.563.563 0 00-.084-.057l-.003-.001a.415.415 0 00-.09-.031l-.003-.001a.502.502 0 00-.101-.02h-.002l-.023-.001a.603.603 0 00-.075.005h.003c-.036.005-.069.009-.104.021a.512.512 0 00-.097.046l.002-.001c-.02.011-.042.015-.061.029l-1.773 1.324-.901-.897 2.399-2.386 4.361 4.289-.928.919zm6.819-7.017c-.015-.002-.03.004-.045.003l-.027-.001a.562.562 0 00-.092.008h.003a.484.484 0 00-.187.07l.002-.001a.492.492 0 00-.083.061c-.013.011-.028.016-.04.029l-4.698 5.146-4.328-4.256 2.833-2.818a.535.535 0 00-.378-.911h-.002l-2.219.013.028-1.607 3.104.027a6.928 6.928 0 004.978 2.101h.003c.438 0 .864-.046 1.28-.122.04.032.08.064.129.085l2.41.96.152.759.178.885-3.003-.427zm4.041.178l-.313-1.558 1.446-1.08.946 1.257-2.08 1.381zm3.754-2.831l-.838.785-.931-1.237.831-.637a.735.735 0 01.543-.143.718.718 0 01.621.71.71.71 0 01-.226.521z"/>
<path fill="var(--color1, #212121)" d="M13.602 18.544l-2.143-2.134a.53.53 0 00-.752 0l-2.143 2.134a.535.535 0 000 .756l2.143 2.134a.53.53 0 00.752 0l2.143-2.134a.532.532 0 000-.756zm-2.519 1.759l-1.387-1.381 1.386-1.381 1.387 1.381-1.387 1.381zm6.081-15.232l-.258 1.036c.071.018 1.738.452 1.738 2.149h1.067c0-2.017-1.666-2.965-2.547-3.184zm2.547 4.251h-1.067v1.066h1.067V9.322z"/>
</symbol>
<symbol id="icon-instagram" viewBox="0 0 32 32">
<path d="M31.968 9.408c-.074-1.701-.349-2.869-.742-3.882a7.839 7.839 0 00-1.85-2.837l-.001-.001A7.906 7.906 0 0026.597.861l-.054-.018C25.524.449 24.362.176 22.661.101 20.949.019 20.405 0 16.059 0c-4.344 0-4.888.019-6.595.094-1.699.074-2.869.349-3.88.742a7.847 7.847 0 00-2.839 1.85l-.001.001A7.9 7.9 0 00.919 5.465l-.018.054C.506 6.538.232 7.7.157 9.401c-.082 1.712-.101 2.256-.101 6.602 0 4.344.019 4.888.094 6.595.075 1.701.35 2.869.744 3.882a7.915 7.915 0 001.849 2.837l.001.001c.8.813 1.77 1.443 2.832 1.843 1.019.395 2.182.67 3.882.744 1.707.075 2.251.094 6.595.094 4.346 0 4.89-.019 6.595-.094 1.701-.074 2.869-.349 3.882-.742a8.237 8.237 0 004.664-4.628l.019-.055c.394-1.019.669-2.182.744-3.882.075-1.707.093-2.251.093-6.595s-.006-4.888-.08-6.595zm-2.88 13.066c-.07 1.563-.333 2.406-.55 2.97a5.341 5.341 0 01-3.004 3.024l-.036.012c-.56.219-1.411.482-2.968.55-1.688.075-2.194.094-6.464.094-4.269 0-4.782-.019-6.464-.094-1.563-.069-2.406-.331-2.97-.55a4.953 4.953 0 01-1.836-1.192l-.001-.001a4.978 4.978 0 01-1.184-1.803L3.6 25.45c-.218-.563-.48-1.413-.549-2.97-.075-1.688-.094-2.195-.094-6.464 0-4.27.019-4.784.094-6.464.069-1.563.331-2.406.549-2.97a4.897 4.897 0 011.198-1.837l.002-.002a4.972 4.972 0 011.806-1.182l.034-.011c.56-.219 1.411-.48 2.968-.55 1.688-.074 2.195-.093 6.464-.093 4.275 0 4.782.019 6.464.093 1.563.069 2.406.331 2.97.55a4.91 4.91 0 011.837 1.194c.531.52.938 1.144 1.195 1.84.218.56.48 1.411.549 2.968.075 1.688.094 2.194.094 6.464 0 4.269-.019 4.768-.094 6.458z"/>
<path d="M16.059 7.782a8.223 8.223 0 00-8.219 8.221v.002a8.222 8.222 0 1016.444 0 8.222 8.222 0 00-8.222-8.222h-.002zm0 13.552a5.333 5.333 0 01.001-10.666h.001a5.334 5.334 0 110 10.668zM26.525 7.458a1.92 1.92 0 01-3.84 0 1.92 1.92 0 013.84 0z"/>
</symbol>
<symbol id="icon-twitter" viewBox="0 0 32 32">
<path d="M32 6.078c-1.1.493-2.376.857-3.713 1.028l-.068.007a6.556 6.556 0 002.873-3.579l.013-.046a12.88 12.88 0 01-4.076 1.573l-.084.014A6.558 6.558 0 0015.6 9.557v.004c0 .52.043 1.021.152 1.496-5.454-.266-10.28-2.88-13.522-6.861a6.524 6.524 0 00-.902 3.313v.001a6.57 6.57 0 002.914 5.451 6.453 6.453 0 01-2.994-.823l.033.017v.072a6.592 6.592 0 005.213 6.44l.043.008a6.403 6.403 0 01-1.662.215h-.061.003c-.419 0-.843-.024-1.242-.112.85 2.598 3.261 4.509 6.13 4.57a13.093 13.093 0 01-8.122 2.8H1.57h.001-.062c-.531 0-1.055-.034-1.569-.099l.061.006c2.826 1.846 6.287 2.944 10.004 2.944h.063-.003c12.072 0 18.672-10 18.672-18.669 0-.288-.01-.57-.024-.848a13.203 13.203 0 003.258-3.355l.03-.047z"/>
</symbol>
<symbol id="icon-facebook" viewBox="0 0 32 32">
<path d="M21.328 5.312h2.923V.224A36.478 36.478 0 0020.144 0h-.157.008c-4.213 0-7.099 2.65-7.099 7.52V12H8.25v5.688h4.646V32h5.698V17.69h4.461l.707-5.688h-5.168V8.08c0-1.643.443-2.768 2.734-2.768z"/>
</symbol>
<symbol id="icon-linkedin" viewBox="0 0 32 32">
<path d="M31.992 32H32V20.262c0-5.741-1.235-10.163-7.947-10.163-3.227 0-5.392 1.77-6.277 3.45h-.093v-2.914h-6.365v21.363h6.627V21.42c0-2.786.528-5.48 3.978-5.48 3.398 0 3.45 3.179 3.45 5.658V32h6.619zM.528 10.635h6.635V32H.528V10.635zM3.843 0A3.843 3.843 0 000 3.843c0 2.12 1.722 3.878 3.843 3.878 2.12 0 3.842-1.757 3.842-3.878S5.965.002 3.844 0z"/>
</symbol>
<symbol id="icon-logo-1" viewBox="0 0 30 32">
<path d="M4 0l4.872 4.468h13.589v12.465l4.872 4.468V0H4z"/>
<path d="M0 4.28v20.79h22.667v-8.264L9.016 4.285.001 4.28zm18.349 17.749H3.587V8.047H4.63v13.035h13.719v.947zM6.527 28.991l.545-1.123h.456l-.795 1.497v.872H6.32v-.872l-.796-1.497h.457l.545 1.123zm2.34.695H7.95l-.192.551H7.33l.895-2.369h.37l.897 2.369h-.43l-.193-.551zm-.802-.332h.687l-.343-.983-.343.983zm2.426.244c0-.109.03-.21.089-.301s.177-.201.353-.327a1.492 1.492 0 01-.189-.288l-.004-.009a.564.564 0 01-.054-.235c0-.185.056-.332.169-.439a.628.628 0 01.455-.163c.173 0 .313.051.423.153.111.1.167.226.167.375v.003a.52.52 0 01-.077.273l.001-.002a.903.903 0 01-.243.246l-.003.002-.161.117.458.541a.947.947 0 00.099-.435h.343c0 .292-.068.531-.205.718l.348.411h-.459l-.133-.157a.971.971 0 01-.58.19h-.027.001c-.234 0-.422-.062-.563-.185a.62.62 0 01-.21-.466v-.022.001zm.784.357a.609.609 0 00.374-.133l-.517-.611-.051.036c-.13.099-.195.211-.195.338 0 .11.035.199.106.267a.389.389 0 00.265.104h.02-.001zm-.218-1.527c0 .091.056.205.168.343l.18-.124.051-.04a.292.292 0 00.101-.221v-.009-.003a.206.206 0 00-.07-.155.247.247 0 00-.169-.067h-.019a.233.233 0 00-.174.078.285.285 0 00-.069.187v.011-.001zm4.305 1.038c-.024.253-.117.451-.28.593s-.379.211-.649.211h-.019a.928.928 0 01-.485-.136l.004.002a.89.89 0 01-.33-.377l-.002-.006a1.354 1.354 0 01-.122-.567v-.23c0-.223.04-.42.119-.591a.904.904 0 01.34-.393.95.95 0 01.515-.139c.261 0 .472.071.631.213s.253.343.279.602h-.41c-.02-.17-.069-.293-.15-.368-.079-.076-.196-.113-.35-.113a.48.48 0 00-.413.197c-.095.13-.144.321-.147.575v.21c0 .256.046.451.137.586s.227.201.403.201c.161 0 .283-.036.365-.109s.133-.193.155-.363h.41zm2.261-.351c0 .232-.04.436-.12.612-.081.175-.196.309-.345.403s-.32.14-.515.14a.96.96 0 01-.514-.14.946.946 0 01-.346-.396l-.002-.006a1.394 1.394 0 01-.123-.578v-.023.001-.133c0-.231.04-.435.122-.613s.198-.312.347-.405c.15-.094.321-.141.514-.141s.365.047.513.14a.91.91 0 01.347.4c.081.173.123.376.123.607v.132zm-.412-.124c0-.263-.05-.463-.149-.603a.485.485 0 00-.4-.21l-.023.001h.001-.017a.488.488 0 00-.4.209l-.001.002c-.1.139-.151.335-.153.591v.137c0 .26.051.461.152.604s.243.213.423.213c.183 0 .323-.07.42-.209.099-.139.148-.342.148-.609v-.124z"/>
</symbol>
<symbol id="icon-logo-2" viewBox="0 0 25 32">
<path d="M10.447 1.806h.084c.156 0 .324.015.49.03a13.96 13.96 0 012.18.329V.403a12.432 12.432 0 00-2.207-.357l-.042-.002c-.254-.02-.571-.035-.889-.043H9.779c-1.523.006-3.04.201-4.515.582a18.28 18.28 0 00-4.79 1.948v17.475a18.922 18.922 0 014.431-1.75l.135-.029a19.11 19.11 0 013.78-.586l.052-.002h.052c.216-.011.433-.017.655-.018V15.83c-1.78.024-3.493.264-5.129.695l.147-.033c-.603.157-1.185.326-1.731.513l-.623.212V3.591l.266-.128c1.89-.918 4.096-1.513 6.424-1.649l.047-.002.028-.001.029.001h-.001c.248-.012.497-.018.742-.018h.28c.129.003.258.006.388.014z"/>
<path d="M14.837 3.651h-.016c-.915 0-1.811-.077-2.684-.225l.094.013c-.277-.047-.55-.103-.814-.164V20.55c1.12.277 2.271.412 3.425.404a18.446 18.446 0 004.644-.61l-.128.029a18.299 18.299 0 004.877-1.995l-.085.047V1.262a19.021 19.021 0 01-4.429 1.751l-.136.03a19.345 19.345 0 01-4.746.609zm6.908.299l.623-.209v13.63l-.266.129c-.903.442-1.962.834-3.065 1.118l-.119.026c-1.331.345-2.7.521-4.074.527-.411 0-.818-.017-1.214-.052l-.426-.038V5.064l.497.033c.361.023.735.034 1.141.034a21.098 21.098 0 005.173-.663 28.128 28.128 0 001.731-.518zM1.684 25.977a.916.916 0 00-.661-.281l-.033.001h.002-.014c-.139 0-.272.028-.393.078l.007-.003a.904.904 0 00-.51.512l-.002.006a1.002 1.002 0 00-.072.386v2.335c-.006.164.026.328.092.479a.83.83 0 00.554.479c.114.031.231.048.349.048a.984.984 0 00.968-.982v-.262h-.61v.221c0 .07-.013.138-.038.199l.001-.004a.38.38 0 01-.089.132.426.426 0 01-.255.089.308.308 0 01-.285-.125l-.001-.001a.548.548 0 01-.082-.289l.001-.025v.001-2.177a.74.74 0 01.075-.349.31.31 0 01.262-.143l.038.002H.987h.012c.107 0 .201.052.26.131l.001.001a.494.494 0 01.102.301v.012-.001.202h.604v-.238-.011c0-.143-.027-.28-.077-.405l.003.007a.955.955 0 00-.205-.329zm3.626-.026a1.083 1.083 0 00-.694-.257 1.075 1.075 0 00-.364.066.965.965 0 00-.556.512l-.002.006a1.083 1.083 0 00-.089.452v2.239c-.004.157.026.314.089.458.055.12.135.227.236.313a.964.964 0 00.322.197 1.049 1.049 0 001.059-.198l-.001.001a.948.948 0 00.23-.313c.063-.145.093-.302.089-.458v-2.24-.02c0-.156-.033-.305-.092-.439l.003.007a1.016 1.016 0 00-.23-.327zm-.285 3.018l.002.035a.398.398 0 01-.123.289.446.446 0 01-.575 0l.001.001a.398.398 0 01-.121-.326v.002-2.24l-.001-.034a.4.4 0 01.123-.289.446.446 0 01.575 0l-.001-.001a.398.398 0 01.121.326v-.002 2.239zm5.047 1v-4.24h-.586l-.771 2.244h-.01l-.778-2.244h-.58v4.24h.606V27.39h.011l.593 1.823h.302l.598-1.823h.01v2.578h.606zm3.441-3.942a.837.837 0 00-.343-.232 1.33 1.33 0 00-.414-.065h-.026.001-.9v4.239h.604v-1.655h.311c.189.009.376-.031.545-.116a.894.894 0 00.329-.32l.002-.004a1.02 1.02 0 00.139-.369c.023-.159.034-.32.033-.482a2.426 2.426 0 00-.059-.606.906.906 0 00-.223-.39zm-.312 1.292a.538.538 0 01-.057.224l.001-.003a.342.342 0 01-.154.147l-.002.001a.617.617 0 01-.254.054l-.033-.001h.002-.276V26.3h.311l.029-.001c.088 0 .172.02.247.055l-.004-.002c.062.036.111.09.141.155l.001.002a.615.615 0 01.053.236v.281c0 .098.006.201 0 .291H13.2zm3.173-1.59h-.495l-.934 4.24h.604l.177-.911h.823l.178.911h.604l-.958-4.24zm-.557 2.752l.297-1.537h.011l.295 1.537h-.604zm4.46-.198h-.011l-.913-2.554h-.58v4.24h.604v-2.55h.012l.923 2.549h.569v-4.239h-.604v2.554zm3.691-2.554l-.486 1.686h-.012l-.486-1.686h-.639l.83 2.448v1.791h.604v-1.791l.83-2.447h-.64zM0 31.166h.291v.817h.198v-.817h.289v-.167H0v.167zm2.447-.167l-.382.984h.21l.081-.224h.392l.084.224h.215l-.391-.985h-.21zm-.03.594l.134-.365.134.365h-.268zm2.449.027h.228v.127a.378.378 0 01-.234.083h-.014a.25.25 0 01-.195-.094.406.406 0 01-.073-.234l.001-.023v.001c0-.219.095-.329.283-.329l.021-.001c.097 0 .178.067.201.157v.001l.194-.038c-.042-.192-.18-.289-.417-.289h-.013a.492.492 0 00-.331.127.48.48 0 00-.141.38v-.002.023c0 .132.048.254.127.347l-.001-.001c.087.09.209.146.343.146L4.877 32h-.001.016c.155 0 .296-.06.402-.157v-.388h-.426v.166zm2.471-.621h-.199v.984h.689v-.167h-.49v-.817zm2.089 0h-.199v.984h.199v-.985zm2.042.656l-.403-.657h-.193v.984h.185v-.643l.396.643h.198v-.985h-.182v.658zm1.847-.105h.49v-.167h-.49v-.216h.527V31h-.727v.984h.747v-.167h-.548v-.266zm4.477-.164h-.388v-.388h-.198v.984h.198v-.431h.388v.431h.198v-.985h-.197v.388zm1.857.164h.492v-.167h-.492v-.216h.529V31h-.726v.984h.746v-.167h-.548v-.266zm2.519 0c.171-.027.258-.118.258-.274a.23.23 0 00-.096-.219h-.001a.555.555 0 00-.25-.059l-.04.001h.002-.417v.984h.198v-.412h.055c.039 0 .076.008.109.023l-.002-.001a.201.201 0 01.07.072l.215.313h.236l-.12-.192a.704.704 0 00-.215-.235l-.002-.002zm-.199-.137h-.146v-.247h.156a.515.515 0 01.205.024l-.004-.001a.13.13 0 01-.009.2.537.537 0 01-.164.025l-.039-.001h.002zm2.099.137h.49v-.167h-.49v-.216h.529V31h-.728v.984h.747v-.167h-.548v-.266z"/>
</symbol>
<symbol id="icon-logo-3" viewBox="0 0 31 32">
<path d="M4.834 30.852c.024 0 .045.01.061.025l.157.159a1.28 1.28 0 01-.441.302 1.64 1.64 0 01-.625.109h-.031c-.2 0-.391-.037-.568-.105l.011.004a1.277 1.277 0 01-.443-.286 1.28 1.28 0 01-.283-.433l-.003-.009a1.53 1.53 0 01-.1-.548v-.019-.019c0-.197.04-.386.111-.557l-.004.01a1.308 1.308 0 01.774-.729 1.72 1.72 0 01.586-.101h.021-.001c.193-.005.384.027.562.091.155.062.298.149.421.256l-.131.17a.118.118 0 01-.033.03h-.001a.088.088 0 01-.046.013h-.007a.118.118 0 01-.058-.019l-.07-.046-.098-.057a1.038 1.038 0 00-.303-.1l-.006-.001a1.221 1.221 0 00-.217-.018h-.017.001-.014c-.151 0-.296.028-.429.079l.008-.003a.992.992 0 00-.342.214.978.978 0 00-.221.34 1.189 1.189 0 00-.081.434v.016-.001c-.002.155.025.309.08.455.048.125.122.24.218.339.09.091.201.163.325.21.128.049.265.073.404.072.08.001.16-.004.239-.015a.907.907 0 00.362-.12c.059-.036.11-.073.157-.113l-.002.001a.12.12 0 01.074-.029zm4.528-.8c.002.192-.034.382-.106.562a1.239 1.239 0 01-.294.437h-.001c-.129.122-.283.22-.454.283l-.009.003a1.798 1.798 0 01-1.204-.004l.013.004a1.29 1.29 0 01-.755-.721l-.003-.009a1.54 1.54 0 01.004-1.138l-.004.01a1.31 1.31 0 01.297-.442c.129-.118.282-.213.451-.274l.009-.003a1.78 1.78 0 011.192 0 1.287 1.287 0 01.758.724c.072.181.109.373.107.566zm-.412 0v-.024a1.24 1.24 0 00-.078-.437l.003.009a.934.934 0 00-.21-.339.918.918 0 00-.325-.211l-.006-.002a1.3 1.3 0 00-.866 0 .92.92 0 00-.54.545l-.002.006c-.099.295-.099.61 0 .904a.916.916 0 00.543.55c.28.097.587.097.866 0a.913.913 0 00.331-.212.955.955 0 00.21-.338c.053-.145.078-.299.075-.452zm3.5.474l.042.101c.015-.036.029-.069.045-.101s.032-.067.051-.099l1.001-1.681c.02-.029.037-.047.057-.053s.044-.01.069-.01h.014-.001.296v2.734h-.35v-2.095l-.001-.047.002-.049v.002l-1.007 1.704a.153.153 0 01-.059.062h-.001a.171.171 0 01-.085.023h-.057c-.03 0-.061-.008-.086-.023s-.046-.036-.059-.062v-.001l-1.036-1.714v2.194h-.339v-2.728h.31c.024 0 .048.003.07.01h-.002a.116.116 0 01.055.052v.001l1.023 1.682c.018.028.036.06.05.094l.001.004zm3.769-.136v1.024h-.392v-2.73h.874c.165-.003.329.018.488.06a.937.937 0 01.345.17.702.702 0 01.194.263l.002.005c.046.111.069.23.067.349v.01a.82.82 0 01-.075.344l.002-.005a.757.757 0 01-.21.272l-.001.001a.973.973 0 01-.34.179l-.007.002a1.533 1.533 0 01-.472.064l-.474-.008zm0-.293h.475a.994.994 0 00.303-.041.653.653 0 00.221-.118l-.001.001a.493.493 0 00.132-.178l.001-.003a.54.54 0 00.047-.223v-.006l.001-.028a.48.48 0 00-.042-.197l.001.003a.524.524 0 00-.137-.186l-.001-.001a.799.799 0 00-.529-.147h.003-.475v1.125zm5.267 1.321h-.314a.143.143 0 01-.082-.026.179.179 0 01-.051-.062v-.001l-.267-.661h-1.338l-.277.661a.161.161 0 01-.048.061.138.138 0 01-.085.028h-.313l1.176-2.734h.408l1.192 2.733zm-1.939-1.015h1.105l-.466-1.112a1.775 1.775 0 01-.085-.244l-.003-.013-.045.143a1.464 1.464 0 01-.043.116l-.462 1.111zm3.632-1.706a.148.148 0 01.059.049l1.714 2.06v-2.122h.35v2.733h-.203a.186.186 0 01-.074-.016h.001a.204.204 0 01-.062-.051l-1.714-2.059a.737.737 0 010 .094v2.031h-.35v-2.733h.208c.024 0 .048.004.07.013zm5.014 1.634v1.085h-.392v-1.084l-1.083-1.646h.358c.028 0 .054.009.076.023.022.018.04.039.053.062l.678 1.062c.046.07.087.15.117.235l.002.008.051-.117a.969.969 0 01.069-.129l-.002.004.668-1.069a.316.316 0 01.051-.058.127.127 0 01.079-.028h.361l-1.086 1.653zm-15.937-6.234c.171.021.343.037.518.051 2.644-1.092 4.881-2.879 6.43-5.138s2.344-4.889 2.284-7.563l-2.914-2.69c.193.887.304 1.906.304 2.951 0 2.001-.406 3.908-1.139 5.642l.036-.095c-1.116 2.709-3.027 5.078-5.518 6.842z"/>
<path d="M11.215 23.972l.078.015c2.663-1.758 4.693-4.213 5.827-7.048.642-1.548 1.014-3.346 1.014-5.232a14.05 14.05 0 00-.498-3.716l.023.098-4.151-3.832c1.678 3.149 2.354 6.674 1.949 10.164s-1.877 6.802-4.242 9.55zm14.077-9.366c-.705 2.937-2.418 5.586-4.884 7.554a15.221 15.221 0 01-2.24 1.497l-.08.04c2.008-.545 3.854-1.508 5.394-2.814s2.735-2.924 3.493-4.725l-1.684-1.552z"/>
<path d="M24.632 14.173l-2.397-2.213c-.046 2.523-.823 4.987-2.25 7.139s-3.453 3.911-5.866 5.095h.012c.537 0 1.074-.03 1.608-.088 2.255-.85 4.248-2.202 5.799-3.934s2.613-3.794 3.093-5.998zM11.563 2.643L8.704 0C6.148.912 3.95 2.514 2.397 4.599.844 6.682.008 9.151.001 11.68c.01 2.796 1.029 5.507 2.896 7.707s4.476 3.762 7.414 4.44c2.622-2.949 4.158-6.593 4.383-10.403s-.872-7.586-3.131-10.781zm19.675 11.123c-.011-3.317-1.442-6.494-3.982-8.838s-5.982-3.667-9.575-3.676h-.024a14.38 14.38 0 00-4.93.865l.1-.032 17.506 16.16a11.36 11.36 0 00.905-4.481z"/>
</symbol>
<symbol id="icon-logo-4" viewBox="0 0 64 32">
<path d="M9.964 9.701h-.002c-1.818 0-3.291 1.352-3.291 3.019v.002c0 1.667 1.474 3.019 3.291 3.019h.002c1.818 0 3.291-1.352 3.291-3.019v-.002c0-1.667-1.474-3.018-3.291-3.018zm24.292-.963c-.005-2.316-1.009-4.535-2.794-6.173S27.258.005 24.733 0c-2.525.004-4.946.926-6.732 2.564s-2.791 3.857-2.796 6.174v12.769S34.255 19.56 34.257 8.74v-.002zM0 25.697c.005 1.611.704 3.155 1.947 4.294 1.241 1.139 2.924 1.782 4.681 1.787 1.756-.005 3.439-.648 4.681-1.787s1.942-2.683 1.947-4.293v-8.886S0 18.169 0 25.696zm6.628 1.592c-.343 0-.679-.094-.965-.268a1.64 1.64 0 01-.635-.704l-.004-.01a1.453 1.453 0 01-.097-.93l-.002.01c.067-.309.232-.592.475-.815s.553-.375.889-.436a1.855 1.855 0 011.016.095l-.013-.004c.317.12.588.324.779.585a1.498 1.498 0 01.163 1.496c-.093.203-.22.375-.375.517l-.001.001c-.161.148-.353.266-.564.347s-.437.122-.666.122v-.005zm13.462-.885h-1.317v1.361h-.686v-3.33h2.167v.556h-1.481v.86h1.317v.553zm3.297-.228c0 .328-.058.615-.174.862s-.281.437-.498.571a1.354 1.354 0 01-.715.202h-.027.001a1.38 1.38 0 01-.738-.199 1.326 1.326 0 01-.499-.559l-.003-.008a1.934 1.934 0 01-.181-.823v-.029.001-.164c0-.328.059-.617.176-.865.119-.25.286-.442.501-.574.216-.134.463-.201.741-.201s.523.067.738.201c.216.133.383.324.501.574.119.248.178.535.178.862v.148zm-.694-.151c0-.349-.062-.614-.187-.796a.611.611 0 00-.509-.272l-.028.001h.001l-.026-.001a.61.61 0 00-.506.268l-.001.002c-.125.178-.188.44-.19.787v.162c0 .34.062.603.187.791s.304.281.539.281l.027.001a.602.602 0 00.502-.268l.001-.002c.123-.182.187-.445.187-.791v-.162zm2.919.866l.001-.019a.348.348 0 00-.136-.277l-.001-.001c-.091-.07-.256-.144-.494-.22a3.496 3.496 0 01-.585-.238l.02.009c-.378-.204-.567-.479-.567-.825a.8.8 0 01.151-.48.994.994 0 01.437-.332c.19-.08.404-.119.64-.119.238 0 .45.043.636.13s.329.207.432.364a.948.948 0 01.156.535h-.687c0-.152-.047-.271-.144-.354-.096-.086-.231-.128-.405-.128-.167 0-.297.036-.39.107a.334.334 0 00-.141.271v.008c0 .108.055.199.163.272s.271.141.482.205c.39.117.674.263.853.437s.268.39.268.649a.803.803 0 01-.328.679c-.218.163-.511.244-.88.244-.257 0-.489-.047-.7-.139a1.13 1.13 0 01-.48-.383l-.002-.003a.986.986 0 01-.165-.547v-.021.001h.688c0 .367.219.551.659.551.163 0 .29-.033.382-.098a.326.326 0 00.138-.266v-.013.001zm3.661-1.9h-1.019v2.774h-.687v-2.774h-1.005v-.556h2.711v.556zm2.396 1.331h-1.316v.892h1.545v.551h-2.232v-3.33h2.227v.556h-1.541v.794h1.317v.537zm1.864.224h-.546v1.219h-.686v-3.33h1.237c.393 0 .696.087.91.263s.32.423.32.743c0 .227-.049.417-.148.57-.11.16-.262.284-.44.359l-.007.002.72 1.36v.031h-.736l-.624-1.218zm-.546-.556h.553c.172 0 .306-.043.4-.13a.471.471 0 00.142-.338l-.001-.027v.001a.497.497 0 00-.135-.37c-.088-.09-.225-.135-.409-.135h-.551v.999zm4.156.601v1.174h-.686v-3.33h1.299c.25 0 .47.046.659.137.19.091.337.222.439.39s.153.359.153.574c0 .326-.112.584-.336.773-.223.187-.532.281-.926.281h-.601zm0-.555h.613c.182 0 .32-.043.414-.128.097-.086.144-.208.144-.366l.001-.025a.545.545 0 00-.145-.371.537.537 0 00-.398-.155h-.629v1.045zm4.34.286h-1.317v.892h1.545v.551H39.48v-3.33h2.227v.556h-1.541v.794h1.317v.537zm3.184-1.331h-1.02v2.774h-.686v-2.774h-1.006v-.556h2.712v.556zm2.396 1.331h-1.317v.892h1.545v.551h-2.232v-3.33h2.227v.556h-1.541v.794h1.317v.537zm1.863.224h-.546v1.219h-.687v-3.33h1.238c.393 0 .696.087.91.263s.32.423.32.743c0 .227-.05.417-.148.57-.11.16-.262.284-.44.359l-.007.002.72 1.36v.031h-.736l-.624-1.218zm-.546-.556h.553c.172 0 .305-.043.4-.13a.473.473 0 00.143-.339l-.001-.026v.001a.501.501 0 00-.135-.37c-.088-.09-.225-.135-.409-.135h-.551v.999zm4.031.902l.001-.02a.35.35 0 00-.137-.277l-.001-.001c-.091-.07-.256-.144-.494-.22a3.496 3.496 0 01-.585-.238l.02.009c-.378-.204-.567-.479-.567-.825a.8.8 0 01.151-.48.994.994 0 01.437-.332c.19-.08.404-.119.64-.119.238 0 .45.043.636.13s.329.207.432.364a.948.948 0 01.156.535h-.687a.444.444 0 00-.144-.354c-.096-.086-.231-.128-.405-.128-.167 0-.297.036-.39.107a.332.332 0 00-.141.271v.008c0 .108.055.199.163.272s.27.141.482.205c.39.117.674.263.853.437s.267.39.267.649a.806.806 0 01-.326.679c-.219.163-.512.244-.88.244-.257 0-.489-.047-.7-.139a1.13 1.13 0 01-.48-.383l-.002-.003a.986.986 0 01-.165-.547v-.021.001h.688c0 .367.219.551.659.551.163 0 .29-.033.382-.098a.326.326 0 00.138-.266v-.013.001z"/>
</symbol>
<symbol id="icon-logo-5" viewBox="0 0 40 32">
<path d="M3.056 26.742c.157.194.24.438.236.688l.001.053c0 .324-.141.615-.365.815l-.001.001a1.575 1.575 0 01-1.061.317H.001v-4.361h1.827a1.548 1.548 0 011.017.294l-.004-.003a.994.994 0 01.353.818v-.003c.011.24-.065.477-.212.667a.99.99 0 01-.556.34c.247.046.471.177.63.373zm-2.188-.658h.78a.733.733 0 00.497-.145.516.516 0 00.169-.383l-.002-.045v.002l.001-.037a.535.535 0 00-.167-.389.747.747 0 00-.514-.146h.003-.767v1.144zm1.354 1.672a.54.54 0 00.186-.408l-.001-.036v.002l.001-.032a.552.552 0 00-.189-.416l-.001-.001a.8.8 0 00-.48-.159l-.054.002h.002-.818v1.199h.829a.816.816 0 00.524-.151zm4.567.861l-1.016-1.704h-.382v1.704h-.874v-4.361h1.654a1.624 1.624 0 011.156.373l-.003-.002a1.391 1.391 0 01.12 1.808l.003-.004a1.337 1.337 0 01-.789.443l1.083 1.743H6.79zm-1.397-2.299h.715c.497 0 .745-.22.745-.66l.001-.037a.647.647 0 00-.184-.453.766.766 0 00-.565-.177h.003-.724l.009 1.328zm6.176 1.421H9.826l-.308.878h-.916l1.6-4.313h.991l1.593 4.312h-.916l-.301-.878zm-.233-.66l-.637-1.84-.637 1.84h1.273zm6.215 1.538h-.869l-1.945-2.965v2.965h-.866v-4.361h.866l1.945 2.982v-2.982h.868v4.361zm4.952-1.044c-.182.33-.45.593-.775.764l-.01.005a2.545 2.545 0 01-1.22.274h-1.546v-4.361h1.546l.067-.001c.42 0 .817.1 1.168.277l-.015-.007c.332.168.606.433.785.761.171.333.272.727.272 1.144s-.1.811-.278 1.158l.007-.014zm-.993-.104c.239-.278.384-.642.384-1.041s-.145-.763-.386-1.043l.002.002a1.5 1.5 0 00-1.091-.371h.004-.603v2.823h.603a1.496 1.496 0 001.088-.372l-.002.001zM12.112 0s11.201 4.246 10.962 10.39v10.392S11.881 16.534 12.115 10.39L12.112 0zm20.942 18.349a15.15 15.15 0 017.049-2.628l.068-.006v-3.253c-2.995 1.181-5.436 3.227-7.081 5.827l-.035.06z"/>
<path d="M31.782 19.329c1.749-3.487 4.693-6.158 8.283-7.513l.105-.035V2.408S24.218 8.456 24.555 17.205v14.796s.711-.27 1.829-.777c0-.473 0-.95.051-1.43a15.387 15.387 0 015.326-10.447l.021-.017z"/>
<path d="M30.266 24.825c.084-1.027.27-2.041.558-3.03a14.243 14.243 0 00-3.378 8.921v.016a43.71 43.71 0 003.286-1.741l-.218.118c-.191-.908-.3-1.952-.3-3.021 0-.445.019-.885.056-1.32l-.004.057zm.634.053a14.803 14.803 0 00.212 3.971l-.015-.092c4.358-2.619 9.256-6.664 9.067-11.553v-.426a14.265 14.265 0 00-8.297 3.894l.005-.005a14.228 14.228 0 00-.968 4.158l-.003.052z"/>
</symbol>
<symbol id="icon-logo-6" viewBox="0 0 63 32">
<path d="M31.815 14.712a2.178 2.178 0 01-.405-1.425v.007-2.055c0-.629.134-1.108.403-1.436s.731-.491 1.386-.489c.615 0 1.052.139 1.311.418.282.356.419.791.387 1.229v.483h-1.1v-.489c.004-.16-.007-.32-.032-.479a.471.471 0 00-.157-.284l-.001-.001a.609.609 0 00-.353-.113l-.048.002h.002a.647.647 0 00-.421.118l.002-.001a.554.554 0 00-.182.309l-.001.004c-.027.14-.043.3-.043.465v.046-.002 2.494c-.018.24.031.481.141.7a.528.528 0 00.217.168l.003.001a.556.556 0 00.287.04h-.003a.57.57 0 00.391-.114l-.001.001a.505.505 0 00.163-.3v-.003c.026-.166.038-.333.035-.5V13h1.1v.462a1.953 1.953 0 01-.384 1.297l.004-.005c-.252.306-.683.458-1.317.458s-1.112-.164-1.384-.501zm4.584.021c-.278-.32-.417-.786-.417-1.403v-2.162c0-.61.139-1.072.417-1.385s.742-.469 1.395-.469c.647 0 1.109.156 1.388.469.277.313.42.775.42 1.386v2.162c0 .61-.142 1.078-.425 1.4s-.742.483-1.383.483c-.64 0-1.114-.164-1.395-.481zm1.907-.519c.1-.199.145-.42.132-.639v-2.646a1.237 1.237 0 00-.133-.634l.003.007a.526.526 0 00-.221-.172l-.004-.001a.567.567 0 00-.293-.036h.003a.566.566 0 00-.296.038l.004-.001a.527.527 0 00-.225.171l-.001.001a1.198 1.198 0 00-.134.553l.002.078v-.004 2.659c-.014.22.031.439.132.64.064.067.142.12.228.156l.005.002a.748.748 0 00.571-.001l-.005.002a.692.692 0 00.232-.158v-.012zm2.618-4.837h1.185L43 13.365l.912-3.988h1.153l.116 5.756h-.851l-.091-4.001-.88 4.001h-.683l-.912-4.016-.085 4.016h-.862l.107-5.756zm5.587 0h1.846c1.064 0 1.596.545 1.596 1.634 0 1.044-.56 1.564-1.68 1.564h-.629v2.559h-1.139l.007-5.756zm1.577 2.461a.842.842 0 00.627-.182.977.977 0 00.164-.65l.001-.064c0-.163-.02-.321-.059-.472l.003.013a.448.448 0 00-.084-.159l.001.001a.488.488 0 00-.141-.115l-.003-.001a1.109 1.109 0 00-.511-.092h.003-.442v1.721h.442zm3.507-2.461h1.224l1.256 5.756h-1.062l-.248-1.328h-1.092l-.256 1.328H50.34l1.256-5.756zm1.046 3.762l-.427-2.416-.426 2.416h.853zm2.448-3.762h.798l1.527 3.284V9.377h.946v5.756h-.759l-1.536-3.428v3.428h-.978l.002-5.756zm5.486 3.562l-1.27-3.553h1.069l.775 2.283.727-2.283h1.045l-1.253 3.553v2.195h-1.094v-2.195zm-27 4.712v.302h-.93v2.339h-.39v-2.34h-.934v-.301h2.254zm2.915 2.64h-.309a.129.129 0 01-.077-.025.131.131 0 01-.049-.06v-.001l-.269-.627h-1.29l-.269.627a.173.173 0 01-.041.071.132.132 0 01-.078.025h-.307l1.14-2.64h.396l1.153 2.63zm-1.887-.98h1.076l-.455-1.075a1.937 1.937 0 01-.082-.235l-.003-.014-.043.14-.041.11-.452 1.073zm3.852.721c.071.003.142.003.213 0a1.25 1.25 0 00.183-.032c.056-.012.111-.028.164-.048.05-.019.1-.043.153-.065v-.594h-.461a.085.085 0 01-.073-.042.058.058 0 01-.006-.026v-.203h.885v1.011a1.667 1.667 0 01-.759.27l-.007.001c-.098.01-.211.016-.326.016h-.022c-.201 0-.394-.036-.572-.102l.011.004a1.39 1.39 0 01-.456-.277l.001.001a1.277 1.277 0 01-.291-.41l-.003-.008a1.367 1.367 0 01-.105-.529v-.019V18.963c0-.192.038-.376.106-.544l-.003.01a1.21 1.21 0 01.294-.418 1.38 1.38 0 01.446-.271l.009-.003c.196-.068.403-.101.611-.099.107 0 .212.008.317.023a1.46 1.46 0 01.498.172c.07.041.137.087.199.138l-.11.164a.1.1 0 01-.036.035h-.001a.101.101 0 01-.052.014.145.145 0 01-.071-.022h.001a1.485 1.485 0 01-.117-.066l.006.003a1.04 1.04 0 00-.146-.069l-.007-.002a1.378 1.378 0 00-.201-.057l-.009-.001a1.592 1.592 0 00-.277-.023h-.013.001-.013c-.153 0-.299.027-.435.076l.009-.003a.903.903 0 00-.547.538 1.308 1.308 0 00.003.889l-.003-.009a.99.99 0 00.561.542c.145.046.299.064.452.052zm3.632-.043h1.244v.302h-1.625V17.65h.39l-.009 2.34zm2.54.302h-.39V17.65h.39v2.64zm1.449-2.628a.184.184 0 01.059.048l1.666 1.99-.002-.047.002-.049v.002-1.968h.34v2.651h-.196l-.014.001a.175.175 0 01-.072-.015h.001a.23.23 0 01-.061-.05l-1.664-1.988v2.053h-.326v-2.64h.203c.023 0 .045.005.065.013h-.001zm4.933-.012v.291h-1.381v.872h1.119v.28h-1.119v.9h1.381v.292h-1.782v-2.635h1.782zM10.171 1.346l17.305 4.507v15.792L10.172 17.14V1.346zM9.062 0v17.908l19.522 5.086V5.088L9.062 0z"/>
<path d="M19.524 31.307L0 26.217V8.311l19.524 5.088v17.908zM9.385 1.143l17.079 4.45-7.263 6.664L2.12 7.805l7.265-6.663zM9.062 0L0 8.311l19.524 5.087 9.06-8.311L9.062-.001zm11.562 30.299l7.96-7.303-7.96-2.076v9.38z"/>
</symbol>
<symbol id="icon-send" viewBox="0 0 32 32">
<path fill="var(--color4, #fff)" d="M32 0L0 18l10.227 3.787L26 7 14.003 23.187l.009.003-.012-.003V32l5.735-6.691L27.002 28l4.999-28z"/>
</symbol>
<symbol id="icon-person" width="18" height="18" viewBox="0 0 18 18">
<path d="M9 9a3 3 0 100-6 3 3 0 100 6zm0 1.5c-2.003 0-6 1.005-6 3v.75c0 .412.337.75.75.75h10.5c.412 0 .75-.338.75-.75v-.75c0-1.995-3.998-3-6-3z"/>
</symbol>
<symbol id="icon-phone" width="18" height="18" viewBox="0 0 18 18">
<path d="M13.996 11.123l-1.838-.21a1.44 1.44 0 00-1.187.412L9.64 12.657a10.888 10.888 0 01-4.769-4.77L6.21 6.55a1.44 1.44 0 00.412-1.187l-.21-1.824a1.448 1.448 0 00-1.44-1.28H3.72c-.818 0-1.498.68-1.448 1.498.384 6.18 5.327 11.115 11.5 11.499.817.05 1.498-.63 1.498-1.448v-1.252a1.434 1.434 0 00-1.274-1.432z"/>
</symbol>
<symbol id="icon-email" width="18" height="18" viewBox="0 0 18 18">
<path d="M15 3H3c-.825 0-1.492.675-1.492 1.5l-.008 9c0 .825.675 1.5 1.5 1.5h12c.825 0 1.5-.675 1.5-1.5v-9c0-.825-.675-1.5-1.5-1.5zm-.3 3.188L9.398 9.502a.759.759 0 01-.796 0L3.3 6.188a.637.637 0 11.675-1.08L9 8.25l5.025-3.143a.637.637 0 11.675 1.08z"/>
</symbol>
<symbol id="icon-close" viewBox="0 0 18 18">
<path d="M15 4.108L13.892 3 9.5 7.392 5.108 3 4 4.108 8.392 8.5 4 12.892 5.108 14 9.5 9.608 13.892 14 15 12.892 10.608 8.5 15 4.108z"/>
</symbol>
</defs>
</svg>